<?xml version="1.0" encoding="utf-8"?>
<!--Generator: Adobe Illustrator 21.0.0, SVG Export Plug-In . SVG Version: 6.00 Build 0)-->
<svg version="1.1" id="圖層_1" xmlns="http://www.w3.org/2000/svg" xmlns:xlink="http://www.w3.org/1999/xlink" x="0px" y="0px" viewBox="0 0 100 100" style="enable-background:new 0 0 100 100" xml:space="preserve"><style type="text/css">.st0{fill:none;stroke:#333;stroke-width:3.5;stroke-miterlimit:10}.st1{fill:#666}.st1,.st2,.st3,.st4{stroke:#333;stroke-width:3.5;stroke-miterlimit:10}.st2{stroke-linecap:round;fill:#666}.st3,.st4{fill:#e15b64}.st4{fill:#666;stroke-linecap:round;stroke-linejoin:round}.st5{fill:#f47e60}.st6{opacity:.2}.st7{fill:none;stroke:#fff;stroke-width:3.5;stroke-linecap:round;stroke-miterlimit:10}.st8{fill:#e0e0e0;stroke:#333}.st10,.st11,.st8,.st9{stroke-width:3.5;stroke-miterlimit:10}.st9{opacity:.2;stroke:#000}.st10,.st11{fill:#a0c8d7;stroke:#333}.st11{fill:#333}.st12{fill:#e0e0e0}.st13{fill:#f8b26a}.st14,.st15{fill:#a0c8d7;stroke:#fff;stroke-width:3.5;stroke-linecap:round;stroke-miterlimit:10}.st15{fill:#f5e6c8;stroke:#333}.st16{fill:#fff}.st16,.st17,.st18{stroke:#333;stroke-width:3.5;stroke-miterlimit:10}.st17{stroke-dasharray:3,3;fill:none}.st18{fill:#f5e6c8}.st19,.st20{fill:none;stroke-linecap:round}.st19{stroke:#333;stroke-width:3.5;stroke-miterlimit:10}.st20{stroke-dasharray:3.837,5.7554}.st20,.st21,.st22{stroke:#333;stroke-width:3.5;stroke-miterlimit:10}.st21{stroke-linecap:round;stroke-dasharray:4,6;fill:none}.st22{fill:#f5e169}.st23{fill:#333}.st24{fill:#fff}.st25,.st26,.st27{fill:none;stroke:#333;stroke-miterlimit:10}.st25{stroke-dasharray:3.733,3.733;stroke-width:3.5}.st26,.st27{stroke-width:7}.st27{fill:#f8b26a;stroke-width:3.5}.st28,.st29{fill:#f5e6c8}.st29{stroke:#fff;stroke-linecap:round}.st29,.st30,.st31,.st32,.st33{stroke-width:3.5;stroke-miterlimit:10}.st30{opacity:.2;stroke-linecap:round;stroke:#000}.st31,.st32,.st33{fill:#abbd81;stroke:#333}.st32,.st33{fill:none;stroke:#e0e0e0;stroke-width:7}.st33{fill:#849b87;stroke:#333;stroke-width:3.5}.st34{fill:#abbd81}.st35,.st36,.st37{opacity:.2;stroke:#000;stroke-width:3.5;stroke-miterlimit:10}.st35{stroke-linecap:round;stroke-linejoin:round}.st36,.st37{fill:#abbd81}.st37{fill:#f8b26a}.st38{fill:url(#SVGID_1_);stroke:#333}.st38,.st39,.st40,.st41{stroke-width:3.5;stroke-miterlimit:10}.st39{opacity:.2;stroke-linejoin:round;stroke:#000}.st40,.st41{fill:#77a4bd;stroke:#333}.st41{fill:none;stroke-linecap:round;stroke-dasharray:3.5707,5.356}.st42{fill:#f2f2f2}.st43,.st44,.st45{stroke-width:3.5;stroke-miterlimit:10}.st43{stroke:#333;fill:url(#SVGID_2_)}.st44,.st45{fill:none;stroke-linecap:round}.st44{stroke-linejoin:round;stroke:#333}.st45{stroke:#e0e0e0}.st46{fill:url(#SVGID_3_);stroke:#333}.st46,.st47,.st48,.st49{stroke-width:3.5;stroke-miterlimit:10}.st47{stroke-linecap:round;stroke-linejoin:round;fill:none;stroke:#fff}.st48,.st49{fill:url(#SVGID_4_);stroke:#333}.st49{fill:url(#SVGID_5_)}.st50,.st51{fill:none;stroke-width:3.5}.st50{stroke-linecap:round;stroke-linejoin:round;stroke-miterlimit:10;stroke:#f8b26a}.st51{stroke:#e0e0e0}.st51,.st52,.st53,.st54{stroke-miterlimit:10}.st52{stroke-width:12;fill:none;stroke:#e15b64}.st53,.st54{fill:#333;stroke:#333}.st54{fill:none;stroke-width:3;stroke-linecap:round}.st55{opacity:.5}.st56{fill:none;stroke:#000;stroke-linecap:round;stroke-miterlimit:10}.st57{fill:#e15b64}.st58,.st59{stroke-miterlimit:10}.st58{stroke-linecap:round;fill:none;stroke:#fff;stroke-width:3}.st59{fill:#f47e60;stroke:#333;stroke-width:3.5}.st60,.st61{stroke-linecap:round}.st60{stroke:#333;stroke-width:3.5;stroke-miterlimit:10;fill:#fff}.st61{fill:#333}.st61,.st62,.st63,.st64,.st65,.st66,.st67,.st68{stroke:#333;stroke-width:3.5;stroke-miterlimit:10}.st63,.st64,.st65,.st66,.st67,.st68{fill:#f5e169;stroke-linecap:round}.st64,.st65,.st66,.st67,.st68{fill:none;stroke:#f8b26a}.st65,.st66,.st67,.st68{fill:#abbd81;stroke:#333}.st66,.st67,.st68{fill:#a0c8d7}.st67,.st68{fill:#f47e60}.st68{fill:#c33737}</style><line class="st0" x1="50" y1="50" x2="25.875" y2="77.188"/><line class="st0" x1="22.25" y1="26.25" x2="50" y2="50"/><line class="st0" x1="62.25" y1="19.687" x2="50" y2="50"/><line class="st0" x1="82.625" y1="52.188" x2="50" y2="50"/><line class="st0" x1="69.922" y1="80.578" x2="50" y2="50"/><circle class="st27" cx="22.25" cy="26.25" r="7"/><circle class="st27" cx="82.625" cy="52.188" r="7.375"/><circle class="st27" cx="62.25" cy="19.687" r="9.125"/><circle class="st31" cx="50" cy="50" r="5.188"/><circle class="st27" cx="25.875" cy="77.188" r="7.375"/><circle class="st27" cx="69.922" cy="80.578" r="9.422"/><path class="st35" d="M26.096,20.404c0.728,1.104,1.154,2.424,1.154,3.846c0,3.866-3.134,7-7,7c-1.421,0-2.742-0.426-3.846-1.154 c1.252,1.899,3.401,3.154,5.846,3.154c3.866,0,7-3.134,7-7C29.25,23.805,27.995,21.656,26.096,20.404z"/><path class="st35" d="M86.743,46.069C87.537,47.245,88,48.662,88,50.188c0,4.073-3.302,7.375-7.375,7.375 c-1.525,0-2.942-0.463-4.118-1.257c1.325,1.964,3.571,3.257,6.118,3.257c4.073,0,7.375-3.302,7.375-7.375 C90,49.64,88.708,47.394,86.743,46.069z"/><path class="st35" d="M67.618,12.32c1.1,1.507,1.757,3.359,1.757,5.368c0,5.04-4.085,9.125-9.125,9.125 c-2.009,0-3.86-0.657-5.368-1.757c1.66,2.274,4.337,3.757,7.368,3.757c5.04,0,9.125-4.085,9.125-9.125 C71.375,16.657,69.892,13.979,67.618,12.32z"/><path class="st35" d="M52.512,45.488c0.417,0.747,0.675,1.596,0.675,2.512c0,2.865-2.322,5.188-5.187,5.188 c-0.917,0-1.765-0.258-2.512-0.675c0.887,1.588,2.564,2.675,4.512,2.675c2.865,0,5.187-2.323,5.187-5.188 C55.187,48.052,54.101,46.374,52.512,45.488z"/><path class="st35" d="M29.993,71.069c0.793,1.176,1.257,2.593,1.257,4.118c0,4.073-3.302,7.375-7.375,7.375 c-1.525,0-2.942-0.463-4.118-1.257c1.325,1.964,3.571,3.257,6.118,3.257c4.073,0,7.375-3.302,7.375-7.375 C33.25,74.64,31.958,72.394,29.993,71.069z"/><path class="st35" d="M75.502,72.998c1.153,1.563,1.842,3.489,1.842,5.58c0,5.204-4.218,9.422-9.422,9.422 c-2.091,0-4.017-0.69-5.58-1.842C64.058,88.484,66.809,90,69.922,90c5.204,0,9.422-4.218,9.422-9.422 C79.344,77.466,77.828,74.714,75.502,72.998z"/><metadata xmlns:d="https://loading.io/stock/">
<d:name>network</d:name>
<d:tags>network,social,connection,graph,chart,link,relationship,society,topology,diagram,infrastructure</d:tags>
<d:license>cc-by</d:license>
<d:slug>4bovdg</d:slug>
</metadata></svg>